<svg width="232" height="192" viewBox="0 0 232 192" fill="none" xmlns="http://www.w3.org/2000/svg">
<path fill-rule="evenodd" clip-rule="evenodd" d="M50.087 7.51304C50.087 3.3637 53.4507 0 57.6 0C61.7493 0 65.113 3.3637 65.113 7.51304V25.8783H165.287V7.51304C165.287 3.3637 168.651 0 172.8 0C176.949 0 180.313 3.3637 180.313 7.51304V25.8783H219.235C225.862 25.8783 231.235 31.2508 231.235 37.8783V180C231.235 186.627 225.862 192 219.235 192H12C5.37257 192 0 186.627 0 180V37.8783C0 31.2509 5.37258 25.8783 12 25.8783H50.087V7.51304ZM165.287 35.8783V43.4087C165.287 47.558 168.651 50.9217 172.8 50.9217C176.949 50.9217 180.313 47.558 180.313 43.4087V35.8783H219.235C220.339 35.8783 221.235 36.7737 221.235 37.8783V69.3262L10 70.1203V37.8783C10 36.7737 10.8954 35.8783 12 35.8783H50.087V43.4087C50.087 47.558 53.4507 50.9217 57.6 50.9217C61.7493 50.9217 65.113 47.558 65.113 43.4087V35.8783H165.287ZM10 80.1204V180C10 181.105 10.8954 182 12 182H219.235C220.339 182 221.235 181.105 221.235 180V79.3262L10 80.1204ZM174.47 157.27C174.47 156.165 175.365 155.27 176.47 155.27H189.165C190.27 155.27 191.165 156.165 191.165 157.27V169.965C191.165 171.07 190.27 171.965 189.165 171.965H176.47C175.365 171.965 174.47 171.07 174.47 169.965V157.27ZM176.47 132.73C175.365 132.73 174.47 133.626 174.47 134.73V147.426C174.47 148.531 175.365 149.426 176.47 149.426H189.165C190.27 149.426 191.165 148.531 191.165 147.426V134.73C191.165 133.626 190.27 132.73 189.165 132.73H176.47ZM174.47 113.861C174.47 112.756 175.365 111.861 176.47 111.861H189.165C190.27 111.861 191.165 112.756 191.165 113.861V126.557C191.165 127.661 190.27 128.557 189.165 128.557H176.47C175.365 128.557 174.47 127.661 174.47 126.557V113.861ZM176.47 90.9913C175.365 90.9913 174.47 91.8867 174.47 92.9913V105.687C174.47 106.792 175.365 107.687 176.47 107.687H189.165C190.27 107.687 191.165 106.792 191.165 105.687V92.9913C191.165 91.8867 190.27 90.9913 189.165 90.9913H176.47ZM151.93 157.27C151.93 156.165 152.826 155.27 153.93 155.27H166.626C167.731 155.27 168.626 156.165 168.626 157.27V169.965C168.626 171.07 167.731 171.965 166.626 171.965H153.93C152.826 171.965 151.93 171.07 151.93 169.965V157.27ZM153.93 132.73C152.826 132.73 151.93 133.626 151.93 134.73V147.426C151.93 148.531 152.826 149.426 153.93 149.426H166.626C167.731 149.426 168.626 148.531 168.626 147.426V134.73C168.626 133.626 167.731 132.73 166.626 132.73H153.93ZM151.93 113.861C151.93 112.756 152.826 111.861 153.93 111.861H166.626C167.731 111.861 168.626 112.756 168.626 113.861V126.557C168.626 127.661 167.731 128.557 166.626 128.557H153.93C152.826 128.557 151.93 127.661 151.93 126.557V113.861ZM153.93 90.9913C152.826 90.9913 151.93 91.8867 151.93 92.9913V105.687C151.93 106.792 152.826 107.687 153.93 107.687H166.626C167.731 107.687 168.626 106.792 168.626 105.687V92.9913C168.626 91.8867 167.731 90.9913 166.626 90.9913H153.93ZM129.391 157.27C129.391 156.165 130.287 155.27 131.391 155.27H144.087C145.192 155.27 146.087 156.165 146.087 157.27V169.965C146.087 171.07 145.192 171.965 144.087 171.965H131.391C130.287 171.965 129.391 171.07 129.391 169.965V157.27ZM131.391 132.73C130.287 132.73 129.391 133.626 129.391 134.73V147.426C129.391 148.531 130.287 149.426 131.391 149.426H144.087C145.192 149.426 146.087 148.531 146.087 147.426V134.73C146.087 133.626 145.192 132.73 144.087 132.73H131.391ZM129.391 113.861C129.391 112.756 130.287 111.861 131.391 111.861H144.087C145.192 111.861 146.087 112.756 146.087 113.861V126.557C146.087 127.661 145.192 128.557 144.087 128.557H131.391C130.287 128.557 129.391 127.661 129.391 126.557V113.861ZM131.391 90.9913C130.287 90.9913 129.391 91.8867 129.391 92.9913V105.687C129.391 106.792 130.287 107.687 131.391 107.687H144.087C145.192 107.687 146.087 106.792 146.087 105.687V92.9913C146.087 91.8867 145.192 90.9913 144.087 90.9913H131.391ZM106.852 157.27C106.852 156.165 107.748 155.27 108.852 155.27H121.548C122.652 155.27 123.548 156.165 123.548 157.27V169.965C123.548 171.07 122.652 171.965 121.548 171.965H108.852C107.748 171.965 106.852 171.07 106.852 169.965V157.27ZM108.852 132.73C107.748 132.73 106.852 133.626 106.852 134.73V147.426C106.852 148.531 107.748 149.426 108.852 149.426H121.548C122.652 149.426 123.548 148.531 123.548 147.426V134.73C123.548 133.626 122.652 132.73 121.548 132.73H108.852ZM106.852 113.861C106.852 112.756 107.748 111.861 108.852 111.861H121.548C122.652 111.861 123.548 112.756 123.548 113.861V126.557C123.548 127.661 122.652 128.557 121.548 128.557H108.852C107.748 128.557 106.852 127.661 106.852 126.557V113.861ZM108.852 90.9913C107.748 90.9913 106.852 91.8867 106.852 92.9913V105.687C106.852 106.792 107.748 107.687 108.852 107.687H121.548C122.652 107.687 123.548 106.792 123.548 105.687V92.9913C123.548 91.8867 122.652 90.9913 121.548 90.9913H108.852ZM84.313 157.27C84.313 156.165 85.2085 155.27 86.313 155.27H99.0087C100.113 155.27 101.009 156.165 101.009 157.27V169.965C101.009 171.07 100.113 171.965 99.0087 171.965H86.313C85.2085 171.965 84.313 171.07 84.313 169.965V157.27ZM86.313 132.73C85.2085 132.73 84.313 133.626 84.313 134.73V147.426C84.313 148.531 85.2085 149.426 86.313 149.426H99.0087C100.113 149.426 101.009 148.531 101.009 147.426V134.73C101.009 133.626 100.113 132.73 99.0087 132.73H86.313ZM84.313 113.861C84.313 112.756 85.2085 111.861 86.313 111.861H99.0087C100.113 111.861 101.009 112.756 101.009 113.861V126.557C101.009 127.661 100.113 128.557 99.0087 128.557H86.313C85.2085 128.557 84.313 127.661 84.313 126.557V113.861ZM86.313 90.9913C85.2085 90.9913 84.313 91.8867 84.313 92.9913V105.687C84.313 106.792 85.2085 107.687 86.313 107.687H99.0087C100.113 107.687 101.009 106.792 101.009 105.687V92.9913C101.009 91.8867 100.113 90.9913 99.0087 90.9913H86.313ZM61.7739 157.27C61.7739 156.165 62.6693 155.27 63.7739 155.27H76.4696C77.5741 155.27 78.4696 156.165 78.4696 157.27V169.965C78.4696 171.07 77.5741 171.965 76.4696 171.965H63.7739C62.6693 171.965 61.7739 171.07 61.7739 169.965V157.27ZM63.7739 132.73C62.6693 132.73 61.7739 133.626 61.7739 134.73V147.426C61.7739 148.531 62.6693 149.426 63.7739 149.426H76.4696C77.5741 149.426 78.4696 148.531 78.4696 147.426V134.73C78.4696 133.626 77.5741 132.73 76.4696 132.73H63.7739ZM61.7739 113.861C61.7739 112.756 62.6693 111.861 63.7739 111.861H76.4696C77.5741 111.861 78.4696 112.756 78.4696 113.861V126.557C78.4696 127.661 77.5741 128.557 76.4696 128.557H63.7739C62.6693 128.557 61.7739 127.661 61.7739 126.557V113.861ZM41.2348 155.27C40.1302 155.27 39.2348 156.165 39.2348 157.27V169.965C39.2348 171.07 40.1302 171.965 41.2348 171.965H53.9304C55.035 171.965 55.9304 171.07 55.9304 169.965V157.27C55.9304 156.165 55.035 155.27 53.9304 155.27H41.2348ZM39.2348 134.73C39.2348 133.626 40.1302 132.73 41.2348 132.73H53.9304C55.035 132.73 55.9304 133.626 55.9304 134.73V147.426C55.9304 148.531 55.035 149.426 53.9304 149.426H41.2348C40.1302 149.426 39.2348 148.531 39.2348 147.426V134.73ZM41.2348 111.861C40.1302 111.861 39.2348 112.756 39.2348 113.861V126.557C39.2348 127.661 40.1302 128.557 41.2348 128.557H53.9304C55.035 128.557 55.9304 127.661 55.9304 126.557V113.861C55.9304 112.756 55.035 111.861 53.9304 111.861H41.2348Z" fill="#7E7E7E"/>
</svg>
