<svg width="192" height="192" viewBox="0 0 192 192" fill="none" xmlns="http://www.w3.org/2000/svg">
<path fill-rule="evenodd" clip-rule="evenodd" d="M182 96C182 143.496 143.496 182 96 182C48.5035 182 10 143.496 10 96C10 48.5035 48.5035 10 96 10C143.496 10 182 48.5035 182 96ZM192 96C192 149.019 149.019 192 96 192C42.9807 192 0 149.019 0 96C0 42.9807 42.9807 0 96 0C149.019 0 192 42.9807 192 96ZM78.4929 80.94C79.4837 79.3359 80.8385 77.9878 82.4475 77.005L121.521 53.14C132.245 46.5901 144.547 58.8385 138.044 69.591L114.507 108.508C113.517 110.146 112.149 111.522 110.518 112.524L70.5124 137.089C59.7392 143.704 47.3804 131.313 54.0237 120.557L78.4929 80.94ZM109 94.4999C109 101.404 103.404 107 96.5 107C89.5964 107 84 101.404 84 94.4999C84 87.5964 89.5964 81.9999 96.5 81.9999C103.404 81.9999 109 87.5964 109 94.4999Z" fill="#7E7E7E"/>
</svg>
