<svg width="187" height="187" viewBox="0 0 187 187" fill="none" xmlns="http://www.w3.org/2000/svg">
<path fill-rule="evenodd" clip-rule="evenodd" d="M73.0914 6C73.0914 2.68629 75.7777 0 79.0914 0H107.909C111.222 0 113.909 2.68629 113.909 6V23.9101C118.932 25.405 123.728 27.4254 128.235 29.9074L140.944 17.1994C143.288 14.8563 147.087 14.8565 149.43 17.1998L169.806 37.5777C172.149 39.9209 172.148 43.7199 169.805 46.0629L157.096 58.771C159.576 63.2759 161.596 68.0705 163.09 73.0913H181C184.314 73.0913 187 75.7776 187 79.0913V107.909C187 111.222 184.314 113.909 181 113.909H163.365C161.912 119.048 159.91 123.958 157.427 128.57L169.801 140.944C172.144 143.288 172.143 147.087 169.8 149.43L149.422 169.806C147.079 172.149 143.28 172.148 140.937 169.805L128.839 157.706C124.158 160.342 119.157 162.477 113.909 164.039V181C113.909 184.314 111.222 187 107.909 187H79.0914C75.7777 187 73.0914 184.314 73.0914 181V164.315C67.7229 162.796 62.6054 160.68 57.8155 158.042L46.0555 169.801C43.7123 172.144 39.9133 172.143 37.5703 169.8L17.1944 149.422C14.8513 147.079 14.8515 143.28 17.1948 140.937L28.9548 129.178C26.3184 124.39 24.2031 119.275 22.6853 113.909H6C2.68629 113.909 0 111.222 0 107.909V79.0913C0 75.7776 2.68629 73.0913 6 73.0913H22.9609C24.5234 67.8411 26.66 62.8381 29.2978 58.1551L17.1994 46.0556C14.8564 43.7123 14.8566 39.9134 17.1999 37.5703L37.5777 17.1944C39.921 14.8514 43.72 14.8516 46.063 17.1948L58.4364 29.5694C63.0468 27.0882 67.9541 25.0876 73.0914 23.6346V6ZM56.4797 93.9746C56.4797 114.158 72.8418 130.52 93.0254 130.52C113.209 130.52 129.571 114.158 129.571 93.9746C129.571 73.791 113.209 57.4289 93.0254 57.4289C72.8418 57.4289 56.4797 73.791 56.4797 93.9746Z" fill="#7E7E7E"/>
</svg>
