<svg width="1103" height="804" viewBox="0 0 1103 804" fill="none" xmlns="http://www.w3.org/2000/svg">
<path d="M-22 -32C-22 -33.1046 -21.1046 -34 -20 -34H2467C2468.1 -34 2469 -33.1046 2469 -32V1347C2469 1348.1 2468.1 1349 2467 1349H-20C-21.1046 1349 -22 1348.1 -22 1347V-32Z" fill="white"/>
<path d="M-20 -33H2467V-35H-20V-33ZM2468 -32V1347H2470V-32H2468ZM2467 1348H-20V1350H2467V1348ZM-21 1347V-32H-23V1347H-21ZM-20 1348C-20.5523 1348 -21 1347.55 -21 1347H-23C-23 1348.66 -21.6569 1350 -20 1350V1348ZM2468 1347C2468 1347.55 2467.55 1348 2467 1348V1350C2468.66 1350 2470 1348.66 2470 1347H2468ZM2467 -33C2467.55 -33 2468 -32.5523 2468 -32H2470C2470 -33.6568 2468.66 -35 2467 -35V-33ZM-20 -35C-21.6569 -35 -23 -33.6569 -23 -32H-21C-21 -32.5523 -20.5523 -33 -20 -33V-35Z" fill="black" fill-opacity="0.1"/>
<path fill-rule="evenodd" clip-rule="evenodd" d="M208.033 175.526C226.435 165.937 239 146.686 239 124.5C239 92.7436 213.256 67 181.5 67C149.744 67 124 92.7436 124 124.5C124 146.528 136.387 165.663 154.574 175.319C152.775 175.923 150.995 176.59 149.237 177.318C139.167 181.489 130.017 187.603 122.31 195.31C114.603 203.017 108.489 212.167 104.318 222.237C100.147 232.307 98 243.1 98 254H181H264C264 243.1 261.853 232.307 257.682 222.237C253.511 212.167 247.397 203.017 239.69 195.31C231.983 187.603 222.833 181.489 212.763 177.318C211.203 176.672 209.625 176.074 208.033 175.526Z" fill="#7E7E7E"/>
<path fill-rule="evenodd" clip-rule="evenodd" d="M525.091 73C525.091 69.6863 527.778 67 531.091 67H559.909C563.222 67 565.909 69.6863 565.909 73V90.9101C570.932 92.405 575.728 94.4254 580.235 96.9074L592.944 84.1994C595.288 81.8563 599.087 81.8565 601.43 84.1998L621.806 104.578C624.149 106.921 624.148 110.72 621.805 113.063L609.096 125.771C611.576 130.276 613.596 135.071 615.09 140.091H633C636.314 140.091 639 142.778 639 146.091V174.909C639 178.222 636.314 180.909 633 180.909H615.365C613.912 186.048 611.91 190.958 609.427 195.57L621.801 207.944C624.144 210.288 624.143 214.087 621.8 216.43L601.422 236.806C599.079 239.149 595.28 239.148 592.937 236.805L580.839 224.706C576.158 227.342 571.157 229.477 565.909 231.039V248C565.909 251.314 563.222 254 559.909 254H531.091C527.778 254 525.091 251.314 525.091 248V231.315C519.723 229.796 514.605 227.68 509.816 225.042L498.056 236.801C495.712 239.144 491.913 239.143 489.57 236.8L469.194 216.422C466.851 214.079 466.852 210.28 469.195 207.937L480.955 196.178C478.318 191.39 476.203 186.275 474.685 180.909H458C454.686 180.909 452 178.222 452 174.909V146.091C452 142.778 454.686 140.091 458 140.091H474.961C476.523 134.841 478.66 129.838 481.298 125.155L469.199 113.056C466.856 110.712 466.857 106.913 469.2 104.57L489.578 84.1944C491.921 81.8514 495.72 81.8516 498.063 84.1948L510.436 96.5694C515.047 94.0882 519.954 92.0876 525.091 90.6346V73ZM508.48 160.975C508.48 181.158 524.842 197.52 545.025 197.52C565.209 197.52 581.571 181.158 581.571 160.975C581.571 140.791 565.209 124.429 545.025 124.429C524.842 124.429 508.48 140.791 508.48 160.975Z" fill="#7E7E7E"/>
<path fill-rule="evenodd" clip-rule="evenodd" d="M744.429 67C741.431 67 739 69.4307 739 72.429C739 75.4274 741.431 77.8581 744.429 77.8581H805.526L818.455 105.953C818.636 106.689 818.891 107.423 819.225 108.149L850.398 175.839C850.705 176.506 851.069 177.136 851.482 177.723L874.324 227.36C875.029 228.89 876.559 229.871 878.244 229.871C878.456 229.871 878.663 229.856 878.864 229.828C879.089 229.856 879.319 229.871 879.552 229.871H887.489C886.65 231.917 886.187 234.158 886.187 236.507C886.187 246.168 894.019 254 903.681 254C913.342 254 921.174 246.168 921.174 236.507C921.174 234.158 920.711 231.917 919.872 229.871H947.812C946.973 231.917 946.51 234.158 946.51 236.507C946.51 246.168 954.342 254 964.003 254C973.665 254 981.497 246.168 981.497 236.507C981.497 234.158 981.034 231.917 980.194 229.871H983.306C986.305 229.871 988.735 227.44 988.735 224.442C988.735 221.444 986.305 219.013 983.306 219.013H964.003H903.681H879.984L863.328 182.819H943.588C947.665 182.819 951.464 180.749 953.673 177.322L997.316 109.632C1002.46 101.646 996.732 91.129 987.23 91.129H830.125C827.121 91.129 824.465 92.1968 822.418 93.9207L811.186 69.5114C810.481 67.9807 808.95 67 807.265 67C807.054 67 806.847 67.0147 806.646 67.0431C806.42 67.0147 806.191 67 805.958 67H744.429ZM966.23 229.871C969.003 230.801 971.001 233.421 971.001 236.507C971.001 240.371 967.868 243.504 964.003 243.504C960.139 243.504 957.006 240.371 957.006 236.507C957.006 233.421 959.003 230.801 961.776 229.871H966.23ZM896.683 236.507C896.683 233.421 898.681 230.801 901.453 229.871H905.908C908.681 230.801 910.678 233.421 910.678 236.507C910.678 240.371 907.545 243.504 903.681 243.504C899.816 243.504 896.683 240.371 896.683 236.507ZM862 100.129H901V115H862V100.129ZM858 115V100.129H830.125C827.937 100.129 826.485 102.396 827.4 104.384L832.289 115H858ZM834.131 119H858V135H841.499L834.131 119ZM842.881 138L850.71 155H858V138H842.881ZM862 138V155H901V138H862ZM904 138V155H943V138H904ZM943 135H904V119H943V135ZM947 138V155H957.357L968.317 138H947ZM970.251 135H947V119H980.567L970.251 135ZM901 135H862V119H901V135ZM852.552 159H858V170.83L852.552 159ZM901 159H862V173.819H901V159ZM904 173.819V159H943V173.819H904ZM947 171.064V159H954.778L947 171.064ZM983.146 115H947V100.129H987.23C989.606 100.129 991.039 102.758 989.752 104.755L983.146 115ZM943 115H904V100.129H943V115Z" fill="#7E7E7E"/>
<path fill-rule="evenodd" clip-rule="evenodd" d="M115.087 312.513C115.087 308.364 118.451 305 122.6 305C126.749 305 130.113 308.364 130.113 312.513V330.878H230.287V312.513C230.287 308.364 233.651 305 237.8 305C241.949 305 245.313 308.364 245.313 312.513V330.878H284.235C290.862 330.878 296.235 336.251 296.235 342.878V485C296.235 491.627 290.862 497 284.235 497H77C70.3726 497 65 491.627 65 485V342.878C65 336.251 70.3726 330.878 77 330.878H115.087V312.513ZM230.287 340.878V348.409C230.287 352.558 233.651 355.922 237.8 355.922C241.949 355.922 245.313 352.558 245.313 348.409V340.878H284.235C285.339 340.878 286.235 341.774 286.235 342.878V374.326L75 375.12V342.878C75 341.774 75.8954 340.878 77 340.878H115.087V348.409C115.087 352.558 118.451 355.922 122.6 355.922C126.749 355.922 130.113 352.558 130.113 348.409V340.878H230.287ZM75 385.12V485C75 486.105 75.8954 487 77 487H284.235C285.339 487 286.235 486.105 286.235 485V384.326L75 385.12ZM239.47 462.27C239.47 461.165 240.365 460.27 241.47 460.27H254.165C255.27 460.27 256.165 461.165 256.165 462.27V474.965C256.165 476.07 255.27 476.965 254.165 476.965H241.47C240.365 476.965 239.47 476.07 239.47 474.965V462.27ZM241.47 437.73C240.365 437.73 239.47 438.626 239.47 439.73V452.426C239.47 453.531 240.365 454.426 241.47 454.426H254.165C255.27 454.426 256.165 453.531 256.165 452.426V439.73C256.165 438.626 255.27 437.73 254.165 437.73H241.47ZM239.47 418.861C239.47 417.756 240.365 416.861 241.47 416.861H254.165C255.27 416.861 256.165 417.756 256.165 418.861V431.557C256.165 432.661 255.27 433.557 254.165 433.557H241.47C240.365 433.557 239.47 432.661 239.47 431.557V418.861ZM241.47 395.991C240.365 395.991 239.47 396.887 239.47 397.991V410.687C239.47 411.792 240.365 412.687 241.47 412.687H254.165C255.27 412.687 256.165 411.792 256.165 410.687V397.991C256.165 396.887 255.27 395.991 254.165 395.991H241.47ZM216.93 462.27C216.93 461.165 217.826 460.27 218.93 460.27H231.626C232.731 460.27 233.626 461.165 233.626 462.27V474.965C233.626 476.07 232.731 476.965 231.626 476.965H218.93C217.826 476.965 216.93 476.07 216.93 474.965V462.27ZM218.93 437.73C217.826 437.73 216.93 438.626 216.93 439.73V452.426C216.93 453.531 217.826 454.426 218.93 454.426H231.626C232.731 454.426 233.626 453.531 233.626 452.426V439.73C233.626 438.626 232.731 437.73 231.626 437.73H218.93ZM216.93 418.861C216.93 417.756 217.826 416.861 218.93 416.861H231.626C232.731 416.861 233.626 417.756 233.626 418.861V431.557C233.626 432.661 232.731 433.557 231.626 433.557H218.93C217.826 433.557 216.93 432.661 216.93 431.557V418.861ZM218.93 395.991C217.826 395.991 216.93 396.887 216.93 397.991V410.687C216.93 411.792 217.826 412.687 218.93 412.687H231.626C232.731 412.687 233.626 411.792 233.626 410.687V397.991C233.626 396.887 232.731 395.991 231.626 395.991H218.93ZM194.391 462.27C194.391 461.165 195.287 460.27 196.391 460.27H209.087C210.192 460.27 211.087 461.165 211.087 462.27V474.965C211.087 476.07 210.192 476.965 209.087 476.965H196.391C195.287 476.965 194.391 476.07 194.391 474.965V462.27ZM196.391 437.73C195.287 437.73 194.391 438.626 194.391 439.73V452.426C194.391 453.531 195.287 454.426 196.391 454.426H209.087C210.192 454.426 211.087 453.531 211.087 452.426V439.73C211.087 438.626 210.192 437.73 209.087 437.73H196.391ZM194.391 418.861C194.391 417.756 195.287 416.861 196.391 416.861H209.087C210.192 416.861 211.087 417.756 211.087 418.861V431.557C211.087 432.661 210.192 433.557 209.087 433.557H196.391C195.287 433.557 194.391 432.661 194.391 431.557V418.861ZM196.391 395.991C195.287 395.991 194.391 396.887 194.391 397.991V410.687C194.391 411.792 195.287 412.687 196.391 412.687H209.087C210.192 412.687 211.087 411.792 211.087 410.687V397.991C211.087 396.887 210.192 395.991 209.087 395.991H196.391ZM171.852 462.27C171.852 461.165 172.748 460.27 173.852 460.27H186.548C187.652 460.27 188.548 461.165 188.548 462.27V474.965C188.548 476.07 187.652 476.965 186.548 476.965H173.852C172.748 476.965 171.852 476.07 171.852 474.965V462.27ZM173.852 437.73C172.748 437.73 171.852 438.626 171.852 439.73V452.426C171.852 453.531 172.748 454.426 173.852 454.426H186.548C187.652 454.426 188.548 453.531 188.548 452.426V439.73C188.548 438.626 187.652 437.73 186.548 437.73H173.852ZM171.852 418.861C171.852 417.756 172.748 416.861 173.852 416.861H186.548C187.652 416.861 188.548 417.756 188.548 418.861V431.557C188.548 432.661 187.652 433.557 186.548 433.557H173.852C172.748 433.557 171.852 432.661 171.852 431.557V418.861ZM173.852 395.991C172.748 395.991 171.852 396.887 171.852 397.991V410.687C171.852 411.792 172.748 412.687 173.852 412.687H186.548C187.652 412.687 188.548 411.792 188.548 410.687V397.991C188.548 396.887 187.652 395.991 186.548 395.991H173.852ZM149.313 462.27C149.313 461.165 150.208 460.27 151.313 460.27H164.009C165.113 460.27 166.009 461.165 166.009 462.27V474.965C166.009 476.07 165.113 476.965 164.009 476.965H151.313C150.208 476.965 149.313 476.07 149.313 474.965V462.27ZM151.313 437.73C150.208 437.73 149.313 438.626 149.313 439.73V452.426C149.313 453.531 150.208 454.426 151.313 454.426H164.009C165.113 454.426 166.009 453.531 166.009 452.426V439.73C166.009 438.626 165.113 437.73 164.009 437.73H151.313ZM149.313 418.861C149.313 417.756 150.208 416.861 151.313 416.861H164.009C165.113 416.861 166.009 417.756 166.009 418.861V431.557C166.009 432.661 165.113 433.557 164.009 433.557H151.313C150.208 433.557 149.313 432.661 149.313 431.557V418.861ZM151.313 395.991C150.208 395.991 149.313 396.887 149.313 397.991V410.687C149.313 411.792 150.208 412.687 151.313 412.687H164.009C165.113 412.687 166.009 411.792 166.009 410.687V397.991C166.009 396.887 165.113 395.991 164.009 395.991H151.313ZM126.774 462.27C126.774 461.165 127.669 460.27 128.774 460.27H141.47C142.574 460.27 143.47 461.165 143.47 462.27V474.965C143.47 476.07 142.574 476.965 141.47 476.965H128.774C127.669 476.965 126.774 476.07 126.774 474.965V462.27ZM128.774 437.73C127.669 437.73 126.774 438.626 126.774 439.73V452.426C126.774 453.531 127.669 454.426 128.774 454.426H141.47C142.574 454.426 143.47 453.531 143.47 452.426V439.73C143.47 438.626 142.574 437.73 141.47 437.73H128.774ZM126.774 418.861C126.774 417.756 127.669 416.861 128.774 416.861H141.47C142.574 416.861 143.47 417.756 143.47 418.861V431.557C143.47 432.661 142.574 433.557 141.47 433.557H128.774C127.669 433.557 126.774 432.661 126.774 431.557V418.861ZM106.235 460.27C105.13 460.27 104.235 461.165 104.235 462.27V474.965C104.235 476.07 105.13 476.965 106.235 476.965H118.93C120.035 476.965 120.93 476.07 120.93 474.965V462.27C120.93 461.165 120.035 460.27 118.93 460.27H106.235ZM104.235 439.73C104.235 438.626 105.13 437.73 106.235 437.73H118.93C120.035 437.73 120.93 438.626 120.93 439.73V452.426C120.93 453.531 120.035 454.426 118.93 454.426H106.235C105.13 454.426 104.235 453.531 104.235 452.426V439.73ZM106.235 416.861C105.13 416.861 104.235 417.756 104.235 418.861V431.557C104.235 432.661 105.13 433.557 106.235 433.557H118.93C120.035 433.557 120.93 432.661 120.93 431.557V418.861C120.93 417.756 120.035 416.861 118.93 416.861H106.235Z" fill="#7E7E7E"/>
<path fill-rule="evenodd" clip-rule="evenodd" d="M383 317C383 310.373 388.373 305 395 305H586.851C593.478 305 598.851 310.373 598.851 317V421.795C598.851 428.422 593.478 433.795 586.851 433.795H395C388.373 433.795 383 428.422 383 421.795V317ZM384.193 443.335C384.193 440.042 386.862 437.373 390.155 437.373H446.205H653.708H701.41C704.703 437.373 707.372 440.042 707.372 443.335C707.372 446.629 704.703 449.298 701.41 449.298H677.561C681.304 454.281 683.521 460.475 683.521 467.186C683.521 483.652 670.173 497 653.708 497C637.242 497 623.894 483.652 623.894 467.186C623.894 460.475 626.112 454.281 629.855 449.298H470.058C473.801 454.281 476.018 460.475 476.018 467.186C476.018 483.652 462.67 497 446.205 497C429.739 497 416.391 483.652 416.391 467.186C416.391 460.475 418.609 454.281 422.352 449.298H390.155C386.862 449.298 384.193 446.629 384.193 443.335ZM639.559 328.788C637.309 326.538 634.257 325.273 631.074 325.273H614.428C607.801 325.273 602.428 330.646 602.428 337.273V421.795C602.428 428.422 607.801 433.795 614.428 433.795H692.987C699.615 433.795 704.987 428.422 704.987 421.795V399.186C704.987 396.004 703.723 392.952 701.473 390.701L639.559 328.788ZM633.729 337.593C632.604 336.468 631.078 335.836 629.486 335.836H619.161C615.847 335.836 613.161 338.522 613.161 341.836V378.901C613.161 382.214 615.847 384.901 619.161 384.901H664.403C667.717 384.901 670.403 382.214 670.403 378.901V376.753C670.403 375.162 669.771 373.635 668.646 372.51L633.729 337.593ZM434.279 467.186C434.279 473.773 439.619 479.112 446.205 479.112C452.791 479.112 458.13 473.773 458.13 467.186C458.13 460.6 452.791 455.261 446.205 455.261C439.619 455.261 434.279 460.6 434.279 467.186ZM653.708 479.112C647.122 479.112 641.782 473.773 641.782 467.186C641.782 460.6 647.122 455.261 653.708 455.261C660.294 455.261 665.633 460.6 665.633 467.186C665.633 473.773 660.294 479.112 653.708 479.112Z" fill="#7E7E7E"/>
<path fill-rule="evenodd" clip-rule="evenodd" d="M910.444 315.586L962.414 367.556C962.789 367.931 963 368.44 963 368.971V485C963 486.105 962.105 487 961 487H948.834C948.943 486.35 949 485.681 949 485V429C949 422.373 943.627 417 937 417H888.21C891.825 412.664 894 407.086 894 401C894 387.193 882.807 376 869 376C855.193 376 844 387.193 844 401C844 407.086 846.175 412.664 849.79 417H801C794.373 417 789 422.373 789 429V485C789 485.681 789.057 486.35 789.166 487H777C775.895 487 775 486.105 775 485V317C775 315.895 775.895 315 777 315H789.166C789.057 315.65 789 316.319 789 317V339C789 345.627 794.373 351 801 351H858C864.627 351 870 345.627 870 339V317C870 316.319 869.943 315.65 869.834 315H909.029C909.56 315 910.069 315.211 910.444 315.586ZM937 487C938.105 487 939 486.105 939 485V429C939 427.895 938.105 427 937 427H801C799.895 427 799 427.895 799 429V485C799 486.105 799.895 487 801 487H937ZM801 497H777C770.373 497 765 491.627 765 485V317C765 310.373 770.373 305 777 305H801H858H909.029C912.212 305 915.264 306.264 917.515 308.515L969.485 360.485C971.736 362.736 973 365.788 973 368.971V485C973 491.627 967.627 497 961 497H937H801ZM799 317C799 315.895 799.895 315 801 315H858C859.105 315 860 315.895 860 317V339C860 340.105 859.105 341 858 341H801C799.895 341 799 340.105 799 339V317ZM813 442C813 439.239 815.239 437 818 437H918C920.761 437 923 439.239 923 442C923 444.761 920.761 447 918 447H818C815.239 447 813 444.761 813 442ZM818 467C815.239 467 813 469.239 813 472C813 474.761 815.239 477 818 477H918C920.761 477 923 474.761 923 472C923 469.239 920.761 467 918 467H818Z" fill="#7E7E7E"/>
<path fill-rule="evenodd" clip-rule="evenodd" d="M110.287 729.317C77.4104 725.11 52 697.024 52 663.003C52 626.077 81.9338 596.144 118.859 596.144C121.877 596.144 124.848 596.344 127.76 596.731C142.28 580.914 163.127 571 186.29 571C220.361 571 249.422 592.452 260.703 622.586C288.442 624.693 310.293 647.868 310.293 676.146C310.293 705.812 286.244 729.862 256.577 729.862C255.037 729.862 253.513 729.797 252.006 729.67V729.862H219.728L224.464 725.126C228.011 721.579 228.011 715.829 224.464 712.283C220.917 708.736 215.167 708.736 211.621 712.283L194.042 729.862H190.613V660.145C190.613 655.096 186.52 651.002 181.47 651.002C176.42 651.002 172.327 655.096 172.327 660.145V729.862H168.898L151.345 712.309C147.784 708.748 142.011 708.748 138.45 712.309C134.889 715.869 134.889 721.643 138.45 725.204L143.108 729.862H118.859H110.287V729.317ZM221.958 714.473C219.727 712.242 216.108 712.242 213.877 714.473L187 741.35V659.5C187 656.462 184.538 654 181.5 654C178.462 654 176 656.462 176 659.5V741.454L149.019 714.473C146.788 712.242 143.17 712.242 140.938 714.473C138.706 716.705 138.706 720.323 140.938 722.555L176.901 758.518C177.884 760.013 179.577 761 181.5 761C183.537 761 185.315 759.893 186.266 758.247L221.958 722.555C224.19 720.323 224.19 716.705 221.958 714.473Z" fill="#7E7E7E"/>
<path fill-rule="evenodd" clip-rule="evenodd" d="M631 667C631 714.496 592.496 753 545 753C497.504 753 459 714.496 459 667C459 619.504 497.504 581 545 581C592.496 581 631 619.504 631 667ZM641 667C641 720.019 598.019 763 545 763C491.981 763 449 720.019 449 667C449 613.981 491.981 571 545 571C598.019 571 641 613.981 641 667ZM527.493 651.94C528.484 650.336 529.839 648.988 531.448 648.005L570.521 624.14C581.245 617.59 593.547 629.839 587.044 640.591L563.507 679.508C562.517 681.146 561.149 682.522 559.518 683.524L519.512 708.089C508.739 714.704 496.38 702.313 503.024 691.557L527.493 651.94ZM558 665.5C558 672.404 552.404 678 545.5 678C538.596 678 533 672.404 533 665.5C533 658.596 538.596 653 545.5 653C552.404 653 558 658.596 558 665.5Z" fill="#7E7E7E"/>
</svg>
