<svg width="208" height="192" viewBox="0 0 208 192" fill="none" xmlns="http://www.w3.org/2000/svg">
<path fill-rule="evenodd" clip-rule="evenodd" d="M145.444 10.5858L197.414 62.5564C197.789 62.9314 198 63.4401 198 63.9706V180C198 181.105 197.105 182 196 182H183.834C183.943 181.35 184 180.681 184 180V124C184 117.373 178.627 112 172 112H123.21C126.825 107.664 129 102.086 129 96C129 82.1929 117.807 71 104 71C90.1929 71 79 82.1929 79 96C79 102.086 81.1749 107.664 84.7898 112H36C29.3726 112 24 117.373 24 124V180C24 180.681 24.0568 181.35 24.1659 182H12C10.8954 182 10 181.105 10 180V12C10 10.8954 10.8954 10 12 10H24.1659C24.0568 10.6504 24 11.3186 24 12V34C24 40.6274 29.3726 46 36 46H93C99.6274 46 105 40.6274 105 34V12C105 11.3186 104.943 10.6504 104.834 10H144.029C144.56 10 145.069 10.2107 145.444 10.5858ZM172 182C173.105 182 174 181.105 174 180V124C174 122.895 173.105 122 172 122H36C34.8954 122 34 122.895 34 124V180C34 181.105 34.8954 182 36 182H172ZM36 192H12C5.37258 192 0 186.627 0 180V12C0 5.37258 5.37258 0 12 0H36H93H144.029C147.212 0 150.264 1.26428 152.515 3.51472L204.485 55.4853C206.736 57.7357 208 60.788 208 63.9706V180C208 186.627 202.627 192 196 192H172H36ZM34 12C34 10.8954 34.8954 10 36 10H93C94.1046 10 95 10.8954 95 12V34C95 35.1046 94.1046 36 93 36H36C34.8954 36 34 35.1046 34 34V12ZM48 137C48 134.239 50.2386 132 53 132H153C155.761 132 158 134.239 158 137C158 139.761 155.761 142 153 142H53C50.2386 142 48 139.761 48 137ZM53 162C50.2386 162 48 164.239 48 167C48 169.761 50.2386 172 53 172H153C155.761 172 158 169.761 158 167C158 164.239 155.761 162 153 162H53Z" fill="#7E7E7E"/>
</svg>
