<svg width="261" height="187" viewBox="0 0 261 187" fill="none" xmlns="http://www.w3.org/2000/svg">
<path fill-rule="evenodd" clip-rule="evenodd" d="M5.42903 0C2.43066 0 0 2.43066 0 5.42903C0 8.4274 2.43065 10.8581 5.42902 10.8581H66.5258L79.4546 38.9528C79.6359 39.6889 79.8911 40.4234 80.2251 41.1486L111.398 108.839C111.705 109.506 112.069 110.136 112.482 110.723L135.324 160.36C136.029 161.89 137.559 162.871 139.244 162.871C139.456 162.871 139.663 162.856 139.864 162.828C140.089 162.856 140.319 162.871 140.552 162.871H148.489C147.65 164.917 147.187 167.158 147.187 169.507C147.187 179.168 155.019 187 164.681 187C174.342 187 182.174 179.168 182.174 169.507C182.174 167.158 181.711 164.917 180.872 162.871H208.812C207.973 164.917 207.51 167.158 207.51 169.507C207.51 179.168 215.342 187 225.003 187C234.665 187 242.497 179.168 242.497 169.507C242.497 167.158 242.034 164.917 241.194 162.871H244.306C247.305 162.871 249.735 160.44 249.735 157.442C249.735 154.444 247.305 152.013 244.306 152.013H225.003H164.681H140.984L124.328 115.819H204.588C208.665 115.819 212.464 113.749 214.673 110.322L258.316 42.6315C263.464 34.6462 257.732 24.129 248.23 24.129H91.1248C88.1214 24.129 85.4647 25.1968 83.4184 26.9207L72.1856 2.51137C71.4812 0.980698 69.9503 0 68.2653 0C68.0537 0 67.8469 0.0147419 67.6455 0.0431131C67.4204 0.014662 67.1909 0 66.9581 0H5.42903ZM227.23 162.871C230.003 163.801 232.001 166.421 232.001 169.507C232.001 173.371 228.868 176.504 225.003 176.504C221.139 176.504 218.006 173.371 218.006 169.507C218.006 166.421 220.003 163.801 222.776 162.871H227.23ZM157.683 169.507C157.683 166.421 159.681 163.801 162.453 162.871H166.908C169.681 163.801 171.678 166.421 171.678 169.507C171.678 173.371 168.545 176.504 164.681 176.504C160.816 176.504 157.683 173.371 157.683 169.507ZM123 33.129H162V48H123V33.129ZM119 48V33.129H91.1248C88.9365 33.129 87.4845 35.3963 88.3999 37.3839L93.2888 48H119ZM95.1309 52H119V68.0001H102.499L95.1309 52ZM103.881 71.0001L111.71 87.9999H119V71.0001H103.881ZM123 71.0001V87.9999H162V71.0001H123ZM165 71.0001V87.9999H204V71.0001H165ZM204 68.0001H165V52H204V68.0001ZM208 71.0001V87.9999H218.357L229.317 71.0001H208ZM231.251 68.0001H208V52H241.567L231.251 68.0001ZM162 68.0001H123V52H162V68.0001ZM113.552 91.9999H119V103.83L113.552 91.9999ZM162 91.9999H123V106.819H162V91.9999ZM165 106.819V91.9999H204V106.819H165ZM208 104.064V91.9999H215.778L208 104.064ZM244.146 48H208V33.129H248.23C250.606 33.129 252.039 35.7583 250.752 37.7547L244.146 48ZM204 48H165V33.129H204V48Z" fill="#7E7E7E"/>
</svg>
