<svg width="325" height="192" viewBox="0 0 325 192" fill="none" xmlns="http://www.w3.org/2000/svg">
<path fill-rule="evenodd" clip-rule="evenodd" d="M0 12C0 5.37258 5.37258 0 12 0H203.851C210.478 0 215.851 5.37258 215.851 12V116.795C215.851 123.422 210.478 128.795 203.851 128.795H12C5.3726 128.795 0 123.422 0 116.795V12ZM1.19258 138.335C1.19258 135.042 3.86218 132.373 7.15531 132.373H63.2048H270.708H318.41C321.703 132.373 324.372 135.042 324.372 138.335C324.372 141.629 321.703 144.298 318.41 144.298H294.561C298.304 149.281 300.521 155.475 300.521 162.186C300.521 178.652 287.173 192 270.708 192C254.242 192 240.894 178.652 240.894 162.186C240.894 155.475 243.112 149.281 246.855 144.298H87.0579C90.8007 149.281 93.0185 155.475 93.0185 162.186C93.0185 178.652 79.6704 192 63.2048 192C46.7392 192 33.3912 178.652 33.3912 162.186C33.3912 155.475 35.609 149.281 39.3517 144.298H7.15531C3.86219 144.298 1.19258 141.629 1.19258 138.335ZM256.559 23.788C254.309 21.5376 251.257 20.2733 248.074 20.2733H231.428C224.801 20.2733 219.428 25.6458 219.428 32.2733V116.795C219.428 123.422 224.801 128.795 231.428 128.795H309.987C316.615 128.795 321.987 123.422 321.987 116.795V94.1865C321.987 91.0039 320.723 87.9516 318.473 85.7012L256.559 23.788ZM250.729 32.5932C249.604 31.4679 248.078 30.8358 246.486 30.8358H236.161C232.847 30.8358 230.161 33.5221 230.161 36.8358V73.9005C230.161 77.2142 232.847 79.9005 236.161 79.9005H281.403C284.717 79.9005 287.403 77.2142 287.403 73.9005V71.7529C287.403 70.1616 286.771 68.6354 285.646 67.5102L250.729 32.5932ZM51.2794 162.186C51.2794 168.773 56.6186 174.112 63.2048 174.112C69.7911 174.112 75.1303 168.773 75.1303 162.186C75.1303 155.6 69.7911 150.261 63.2048 150.261C56.6186 150.261 51.2794 155.6 51.2794 162.186ZM270.708 174.112C264.122 174.112 258.782 168.773 258.782 162.186C258.782 155.6 264.122 150.261 270.708 150.261C277.294 150.261 282.633 155.6 282.633 162.186C282.633 168.773 277.294 174.112 270.708 174.112Z" fill="#7E7E7E"/>
</svg>
