<svg width="259" height="190" viewBox="0 0 259 190" fill="none" xmlns="http://www.w3.org/2000/svg">
<path fill-rule="evenodd" clip-rule="evenodd" d="M58.2874 158.317C25.4104 154.11 0 126.024 0 92.0026C0 55.0774 29.9338 25.1436 66.859 25.1436C69.8771 25.1436 72.8484 25.3436 75.7605 25.731C90.2798 9.91437 111.127 0 134.29 0C168.361 0 197.422 21.452 208.703 51.5861C236.442 53.6929 258.293 76.8676 258.293 105.146C258.293 134.812 234.244 158.862 204.577 158.862C203.037 158.862 201.513 158.797 200.006 158.67V158.862H167.728L172.464 154.126C176.011 150.579 176.011 144.829 172.464 141.283C168.917 137.736 163.167 137.736 159.621 141.283L142.042 158.862H138.613V89.1454C138.613 84.0958 134.52 80.0023 129.47 80.0023C124.42 80.0023 120.327 84.0958 120.327 89.1454V158.862H116.898L99.3449 141.309C95.784 137.748 90.0107 137.748 86.4498 141.309C82.8889 144.869 82.8889 150.643 86.4498 154.204L91.1078 158.862H66.859H58.2874V158.317ZM169.958 143.473C167.727 141.242 164.108 141.242 161.877 143.473L135 170.35V88.5C135 85.4625 132.538 83 129.5 83C126.462 83 124 85.4624 124 88.5V170.454L97.0194 143.473C94.7878 141.242 91.1696 141.242 88.9379 143.473C86.7063 145.705 86.7063 149.323 88.9379 151.555L124.901 187.518C125.884 189.013 127.577 190 129.5 190C131.537 190 133.315 188.893 134.266 187.247L169.958 151.555C172.19 149.323 172.19 145.705 169.958 143.473Z" fill="#7E7E7E"/>
</svg>
