<svg width="166" height="187" viewBox="0 0 166 187" fill="none" xmlns="http://www.w3.org/2000/svg">
<path fill-rule="evenodd" clip-rule="evenodd" d="M110.033 108.526C128.435 98.9372 141 79.686 141 57.5C141 25.7436 115.256 0 83.5 0C51.7436 0 26 25.7436 26 57.5C26 79.5278 38.3865 98.6625 56.5744 108.319C54.7755 108.923 52.9954 109.59 51.2373 110.318C41.1672 114.489 32.0174 120.603 24.3101 128.31C16.6029 136.017 10.4891 145.167 6.318 155.237C2.14686 165.307 0 176.1 0 187H83H166C166 176.1 163.853 165.307 159.682 155.237C155.511 145.167 149.397 136.017 141.69 128.31C133.983 120.603 124.833 114.489 114.763 110.318C113.203 109.672 111.625 109.074 110.033 108.526Z" fill="#7E7E7E"/>
</svg>
